<svg xmlns="http://www.w3.org/2000/svg" viewBox="0 0 512 512" role="img" aria-label="RepoLens">
  <rect x="32" y="32" width="448" height="448" rx="112" fill="#2563eb"/>
  <path fill="#ffffff" transform="translate(96 96) scale(13.333333)"
    d="M12 .297c-6.63 0-12 5.373-12 12 0 5.303 3.438 9.8 8.205 11.385.6.113.82-.258.82-.577 0-.285-.01-1.04-.015-2.04-3.338.725-4.043-1.61-4.043-1.61-.546-1.387-1.333-1.756-1.333-1.756-1.09-.745.083-.73.083-.73 1.205.085 1.84 1.238 1.84 1.238 1.07 1.835 2.807 1.305 3.492.998.108-.776.418-1.305.762-1.605-2.665-.3-5.466-1.332-5.466-5.93 0-1.31.467-2.38 1.235-3.22-.123-.303-.535-1.523.117-3.176 0 0 1.008-.322 3.3 1.23a11.51 11.51 0 0 1 3.003-.404c1.02.005 2.045.137 3.003.404 2.29-1.552 3.297-1.23 3.297-1.23.653 1.653.242 2.873.12 3.176.77.84 1.233 1.91 1.233 3.22 0 4.61-2.805 5.625-5.476 5.92.43.372.813 1.102.813 2.222 0 1.604-.015 2.896-.015 3.286 0 .322.216.696.825.578C20.565 22.092 24 17.592 24 12.297c0-6.627-5.373-12-12-12"/>
</svg>
